<svg xmlns="http://www.w3.org/2000/svg" version="1.1" width="256" height="256" viewBox="0 0 256 256"
    xml:space="preserve">

<defs>
</defs>
    <g style="stroke: none; stroke-width: 0; stroke-dasharray: none; stroke-linecap: butt; stroke-linejoin: miter; stroke-miterlimit: 10; fill: none; fill-rule: nonzero; opacity: 1;" transform="translate(1.4065934065934016 1.4065934065934016) scale(2.81 2.81)" >
	<path d="M 26.785 20.964 L 26.785 20.964 c 4.627 0 8.378 -3.751 8.378 -8.377 V 9.929 c 0 -4.627 -3.751 -8.377 -8.377 -8.377 h 0 c -4.627 0 -8.377 3.751 -8.377 8.377 v 2.657 C 18.407 17.213 22.158 20.964 26.785 20.964 z" style="stroke: none; stroke-width: 1; stroke-dasharray: none; stroke-linecap: butt; stroke-linejoin: miter; stroke-miterlimit: 10; fill: rgb(0,0,0); fill-rule: nonzero; opacity: 1;" transform=" matrix(1 0 0 1 0 0) " stroke-linecap="round" />
        <path d="M 26.785 21.964 c -5.171 0 -9.378 -4.207 -9.378 -9.378 V 9.929 c 0 -5.171 4.207 -9.378 9.378 -9.378 s 9.378 4.207 9.378 9.378 v 2.657 C 36.163 17.757 31.956 21.964 26.785 21.964 z M 26.785 2.551 c -4.068 0 -7.377 3.309 -7.377 7.377 v 2.657 c 0 4.068 3.309 7.377 7.377 7.377 s 7.377 -3.309 7.377 -7.377 V 9.929 C 34.162 5.861 30.853 2.551 26.785 2.551 z" style="stroke: none; stroke-width: 1; stroke-dasharray: none; stroke-linecap: butt; stroke-linejoin: miter; stroke-miterlimit: 10; fill: rgb(0,0,0); fill-rule: nonzero; opacity: 1;" transform=" matrix(1 0 0 1 0 0) " stroke-linecap="round" />
        <path d="M 19.934 26.072 c -5.335 0 -9.66 -4.325 -9.66 -9.66 V 8.232 c 0 -1.999 -1.621 -3.62 -3.62 -3.62 h 0 c -1.735 0 -3.227 1.232 -3.555 2.936 l -1.782 9.257 c -1.31 6.804 1.46 13.892 7.306 17.611 c 2.645 1.683 5.786 2.658 9.153 2.658 h 0 l 0.987 22.545 l 1.947 25.401 c 0.171 1.94 1.796 3.429 3.744 3.429 h 4.661 c 1.948 0 3.573 -1.488 3.744 -3.429 l 1.947 -25.401 c 3.789 -1.306 6.515 -4.894 6.515 -9.126 V 35.732 c 0 -5.335 -4.325 -9.66 -9.66 -9.66 H 19.934" style="stroke: none; stroke-width: 1; stroke-dasharray: none; stroke-linecap: butt; stroke-linejoin: miter; stroke-miterlimit: 10; fill: rgb(0,0,0); fill-rule: nonzero; opacity: 1;" transform=" matrix(1 0 0 1 0 0) " stroke-linecap="round" />
        <path d="M 29.116 89.448 h -4.661 c -2.484 0 -4.522 -1.866 -4.74 -4.34 l -1.948 -25.413 l -0.948 -21.646 c -3.107 -0.163 -6.107 -1.119 -8.732 -2.789 c -6.043 -3.845 -9.158 -11.338 -7.751 -18.644 l 1.782 -9.257 c 0.418 -2.171 2.326 -3.747 4.537 -3.747 c 2.548 0 4.62 2.073 4.62 4.62 v 8.179 c 0 4.775 3.885 8.66 8.66 8.66 h 11.727 c 5.878 0 10.66 4.782 10.66 10.66 v 14.762 c 0 4.319 -2.612 8.191 -6.566 9.835 l -1.899 24.768 C 33.638 87.582 31.6 89.448 29.116 89.448 z M 6.654 5.612 c -1.254 0 -2.336 0.894 -2.573 2.125 l -1.782 9.257 c -1.253 6.508 1.504 13.17 6.86 16.578 c 2.572 1.637 5.552 2.502 8.617 2.502 c 0.535 0 0.976 0.421 0.999 0.956 l 0.987 22.545 l 1.945 25.369 c 0.125 1.423 1.307 2.504 2.746 2.504 h 4.661 c 1.44 0 2.621 -1.081 2.747 -2.516 l 1.946 -25.389 c 0.03 -0.397 0.294 -0.739 0.671 -0.869 c 3.493 -1.204 5.84 -4.491 5.84 -8.18 V 35.732 c 0 -4.775 -3.885 -8.66 -8.66 -8.66 H 19.934 c -5.878 0 -10.66 -4.782 -10.66 -10.66 V 8.233 C 9.274 6.788 8.098 5.612 6.654 5.612 z" style="stroke: none; stroke-width: 1; stroke-dasharray: none; stroke-linecap: butt; stroke-linejoin: miter; stroke-miterlimit: 10; fill: rgb(0,0,0); fill-rule: nonzero; opacity: 1;" transform=" matrix(1 0 0 1 0 0) " stroke-linecap="round" />
        <path d="M 62.63 20.964 L 62.63 20.964 c -4.627 0 -8.378 -3.751 -8.378 -8.377 V 9.929 c 0 -4.627 3.751 -8.377 8.377 -8.377 h 0 c 4.627 0 8.377 3.751 8.377 8.377 v 2.657 C 71.007 17.213 67.256 20.964 62.63 20.964 z" style="stroke: none; stroke-width: 1; stroke-dasharray: none; stroke-linecap: butt; stroke-linejoin: miter; stroke-miterlimit: 10; fill: rgb(0,0,0); fill-rule: nonzero; opacity: 1;" transform=" matrix(1 0 0 1 0 0) " stroke-linecap="round" />
        <path d="M 62.63 21.964 c -5.171 0 -9.378 -4.207 -9.378 -9.378 V 9.929 c 0 -5.171 4.206 -9.378 9.378 -9.378 s 9.378 4.207 9.378 9.378 v 2.657 C 72.008 17.757 67.801 21.964 62.63 21.964 z M 62.63 2.551 c -4.068 0 -7.377 3.309 -7.377 7.377 v 2.657 c 0 4.068 3.31 7.377 7.377 7.377 s 7.377 -3.309 7.377 -7.377 V 9.929 C 70.007 5.861 66.698 2.551 62.63 2.551 z" style="stroke: none; stroke-width: 1; stroke-dasharray: none; stroke-linecap: butt; stroke-linejoin: miter; stroke-miterlimit: 10; fill: rgb(0,0,0); fill-rule: nonzero; opacity: 1;" transform=" matrix(1 0 0 1 0 0) " stroke-linecap="round" />
        <path d="M 88.729 18.135 l -1.526 -7.928 c -0.281 -1.46 -1.558 -2.514 -3.044 -2.514 c -1.712 0 -3.1 1.388 -3.1 3.1 v 7.005 c 0 4.569 -3.704 8.273 -8.273 8.273 h -5.279 h -9.752 c -5.335 0 -9.66 4.325 -9.66 9.66 v 14.762 c 0 2.253 0.778 4.319 2.072 5.959 l -1.574 16.626 h 7.049 l 0.916 11.941 c 0.171 1.94 1.796 3.429 3.744 3.429 h 4.661 c 1.948 0 3.573 -1.488 3.744 -3.429 l 0.916 -11.941 h 7.049 l -1.574 -16.626 V 35.478 c 2.709 -0.084 5.234 -0.896 7.378 -2.26 C 87.479 30.032 89.851 23.962 88.729 18.135 z" style="stroke: none; stroke-width: 1; stroke-dasharray: none; stroke-linecap: butt; stroke-linejoin: miter; stroke-miterlimit: 10; fill: rgb(0,0,0); fill-rule: nonzero; opacity: 1;" transform=" matrix(1 0 0 1 0 0) " stroke-linecap="round" />
        <path d="M 64.96 89.448 h -4.661 c -2.484 0 -4.522 -1.866 -4.74 -4.34 l -0.846 -11.029 h -6.122 c -0.281 0 -0.55 -0.119 -0.739 -0.327 c -0.189 -0.208 -0.283 -0.486 -0.256 -0.768 l 1.537 -16.237 c -1.336 -1.829 -2.04 -3.983 -2.04 -6.253 V 35.732 c 0 -5.878 4.783 -10.66 10.661 -10.66 h 15.031 c 4.01 0 7.273 -3.262 7.273 -7.273 v -7.005 c 0 -2.261 1.84 -4.1 4.101 -4.1 c 1.962 0 3.655 1.399 4.026 3.325 l 1.527 7.928 l 0 0 c 1.215 6.315 -1.479 12.791 -6.703 16.115 c -2.075 1.321 -4.449 2.127 -6.915 2.356 v 20.036 l 1.569 16.531 c 0.027 0.281 -0.065 0.56 -0.256 0.768 c -0.189 0.208 -0.458 0.327 -0.739 0.327 h -6.122 l -0.845 11.017 C 69.482 87.582 67.444 89.448 64.96 89.448 z M 49.691 72.079 h 5.95 c 0.522 0 0.957 0.402 0.997 0.924 l 0.915 11.941 c 0.125 1.423 1.307 2.504 2.746 2.504 h 4.661 c 1.44 0 2.621 -1.081 2.747 -2.516 l 0.915 -11.929 c 0.04 -0.522 0.475 -0.924 0.997 -0.924 h 5.949 l -1.47 -15.531 l -0.005 -21.07 c 0 -0.54 0.429 -0.983 0.969 -1 c 2.453 -0.076 4.829 -0.804 6.873 -2.104 c 4.538 -2.887 6.873 -8.533 5.812 -14.049 l -1.526 -7.928 c -0.189 -0.987 -1.057 -1.703 -2.062 -1.703 c -1.158 0 -2.101 0.942 -2.101 2.1 v 7.005 c 0 5.113 -4.159 9.273 -9.273 9.273 H 57.754 c -4.776 0 -8.661 3.885 -8.661 8.66 v 14.762 c 0 1.952 0.643 3.799 1.858 5.34 c 0.159 0.202 0.234 0.457 0.21 0.714 L 49.691 72.079 z" style="stroke: none; stroke-width: 1; stroke-dasharray: none; stroke-linecap: butt; stroke-linejoin: miter; stroke-miterlimit: 10; fill: rgb(0,0,0); fill-rule: nonzero; opacity: 1;" transform=" matrix(1 0 0 1 0 0) " stroke-linecap="round" />
</g>
</svg>