<?xml version="1.0" encoding="UTF-8"?>
<!DOCTYPE svg PUBLIC "-//W3C//DTD SVG 1.1//EN" "http://www.w3.org/Graphics/SVG/1.1/DTD/svg11.dtd">
<svg version="1.1" xmlns="http://www.w3.org/2000/svg" x="0" y="0" width="388" height="526" viewBox="0, 0, 388, 526">
    <g id="Layer_1">
        <path d="M139.617,255.08 L145.974,286.066 C145.974,286.066 176.166,301.155 194.426,298.772 C212.7,296.382 242.077,274.936 242.077,274.936 L242.077,245.546 L139.617,255.08" fill="#F8D4B6"/>
        <path d="M238.118,278.121 C238.118,278.121 201.577,297.984 185.687,298.772 C169.796,299.566 145.179,280.505 145.179,282.882 C145.179,285.265 165.83,426.656 165.83,426.656 L145.179,516.41 L241.289,516.41 L213.487,425.862 L238.118,278.121" fill="#69975B"/>
        <path d="M145.179,516.41 L165.83,426.656 L140.419,263.025 C126.905,262.23 57.007,321.8 46.679,331.327 C36.356,340.875 1.418,379.793 9.356,399.643 C17.288,419.513 25.233,430.629 42.713,434.602 C60.179,438.574 78.452,445.718 78.452,445.718 L69.72,517.205 L145.179,516.41" fill="#FFFFFE"/>
        <path d="M234.933,518.007 L213.487,426.656 L241.289,251.114 L256.393,245.546 C269.893,244.758 330.671,308.3 340.992,317.827 C351.328,327.361 386.273,366.286 378.328,386.136 C370.39,405.999 362.438,417.129 344.965,421.088 C327.492,425.067 309.226,432.211 309.226,432.211 L319.927,517.205 L234.933,518.007" fill="#FFFFFE"/>
        <path d="M95.496,92.257 C95.496,92.257 55.84,112.768 47.55,130.894 C39.268,148.978 39.268,148.978 39.268,148.978 C39.268,148.978 24.924,135.408 27.188,118.814 C29.452,102.221 47.986,81.689 47.986,81.689 C47.986,81.689 30.296,26.48 33.643,28.132 C36.996,29.799 69.432,37.343 69.432,37.343 C69.432,37.343 63.476,15.919 66.837,16.06 C70.184,16.229 100.031,25.13 100.031,25.13 L104.138,7.159 L130.533,21.488 C130.533,21.488 173.536,13.95 227.086,12.452 C280.65,10.941 317.613,28.294 332.695,56.208 C347.777,84.122 353.072,113.541 353.072,139.177 C353.072,164.819 340.008,188.761 340.008,188.761 C340.008,188.761 339.487,150.497 325.903,146.728 C312.333,142.952 299.824,154.645 299.824,154.645 C299.824,154.645 285.164,119.573 247.463,97.692 C209.747,75.825 173.198,77.161 173.198,77.161 L158.447,52.439 L146.03,72.64 L127.179,56.046 L118.882,80.198 L94.744,62.072 L95.496,92.257" fill="#565856"/>
        <path d="M322.261,149.471 C313.155,148.647 304.676,152.128 299.824,154.645 C294.34,143.269 281.522,120.417 260.695,105.089 C232.043,83.96 173.198,77.161 173.198,77.161 L153.596,52.27 L146.03,72.64 L127.179,56.046 L121.898,83.208 L97.768,61.319 L95.496,92.257 C95.496,92.257 79.669,101.307 67.582,108.099 C62.801,110.784 57.929,115.108 53.766,119.397 C53.273,119.278 52.788,119.186 52.304,119.067 C52.304,119.067 51.01,121.085 48.991,124.565 C45.223,128.869 42.691,132.229 42.691,132.229 L44.682,132.314 C34.304,151.65 18.012,187.565 26.963,209.054 C39.633,239.464 78.924,254.672 99.194,255.952 C119.473,257.218 165.105,261.015 165.105,261.015 L232.275,250.882 L295.641,220.465 C295.641,220.465 334.945,202.718 340.008,188.761 C345.077,174.825 336.204,150.757 322.261,149.471" fill="#F8D4B6"/>
        <path d="M294.432,202.324 C294.432,225.718 275.476,244.659 252.082,244.659 C228.703,244.659 209.733,225.718 209.733,202.324 C209.733,178.932 228.703,159.968 252.082,159.968 C275.476,159.968 294.432,178.932 294.432,202.324" fill="#EB98AF"/>
        <path d="M54.666,159.968 C45.574,159.968 37.172,162.851 30.274,167.737 C24.896,182.307 20.149,202.726 29.901,214.06 C43.641,229.978 51.882,237.108 65.438,243.246 C83.593,238.472 97.015,221.991 97.015,202.324 C97.015,178.932 78.059,159.968 54.666,159.968" fill="#EB98AF"/>
        <path d="M50.109,124.13 C50.109,124.13 -10.485,214.06 60.544,244.026 C131.546,273.987 240.368,266.183 293.145,221.871 C293.145,221.871 355.674,205.776 339.39,167.14 C323.752,129.994 291.176,158.667 291.176,158.667" fill-opacity="0" stroke="#563E26" stroke-width="9" stroke-linecap="round" stroke-linejoin="round"/>
        <path d="M93.689,164.518 C93.689,177.616 86.729,188.213 78.108,188.213 C69.53,188.213 62.562,177.616 62.562,164.518 C62.562,151.46 69.53,140.843 78.108,140.843 C86.729,140.843 93.689,151.46 93.689,164.518" fill="#563E26"/>
        <path d="M239.637,164.518 C239.637,177.616 232.669,188.213 224.069,188.213 C215.484,188.213 208.51,177.616 208.51,164.518 C208.51,151.46 215.484,140.843 224.069,140.843 C232.669,140.843 239.637,151.46 239.637,164.518" fill="#563E26"/>
        <path d="M155.016,165.825 C155.016,165.825 135.469,171.042 138.718,180.815 C141.973,190.589 155.648,189.942 155.648,189.942 M113.307,204.933 C113.307,204.933 134.168,226.441 155.016,225.788 C175.863,225.141 193.448,204.272 193.448,204.272 M50.243,121.669 C50.243,121.669 73.629,97.53 95.496,92.257 L94.744,62.072 L118.882,80.198 L123.41,54.534 L146.03,72.64 L153.596,52.27 L173.198,77.161 C173.198,77.161 270.504,79.425 297.666,151.088 M33.643,144.31 C33.643,144.31 14.784,103.577 47.986,81.689 L33.643,28.132 L69.094,40.205 L66.837,16.06 L100.031,25.13 L100.031,7.777 L127.945,22.859 C127.945,22.859 252.405,-11.841 315.012,39.452 C377.625,90.745 343.679,182.77 343.679,182.77 M128.501,260.648 C128.501,260.648 0.609,354.375 6.973,396.472 C13.322,438.574 73.699,444.924 73.699,444.924 M91.165,346.43 L68.925,518.007 M257.968,246.34 C257.968,246.34 385.852,340.081 379.51,382.177 C373.153,424.272 312.783,430.629 312.783,430.629 M295.304,334.519 L319.927,518.007 M142.001,264.614 L168.221,427.444 L145.179,518.007 M122.145,263.812 L105.46,347.218 L130.09,354.375 L111.815,378.999 L154.721,424.272 M240.502,250.312 L214.289,427.444 L237.316,518.007 M260.351,251.114 L277.043,347.218 L252.413,354.375 L270.68,378.999 L227.789,424.272 M145.974,286.066 C145.974,286.066 193.632,313.854 236.522,276.525" fill-opacity="0" stroke="#563E26" stroke-width="9" stroke-linecap="round" stroke-linejoin="round"/>
        <path d="M114.994,448.102 C114.994,448.102 54.624,359.93 122.939,335.3 C191.241,310.683 183.31,440.156 183.31,440.156 M118.172,330.539 C118.172,330.539 91.952,292.409 114.994,266.203 M265.913,245.546 C265.913,245.546 308.016,324.984 265.913,412.362" fill-opacity="0" stroke="#563E26" stroke-width="13.5" stroke-linecap="round" stroke-linejoin="round"/>
        <path d="M250.816,413.156 L280.214,423.472 L283.393,448.102 L228.577,434.602 L250.816,413.156" fill="#BFC0BD"/>
        <path d="M250.816,413.156 L280.214,423.472 L283.393,448.102 L228.577,434.602 L250.816,413.156 z" fill-opacity="0" stroke="#563E26" stroke-width="9" stroke-linecap="round" stroke-linejoin="round"/>
    </g>
</svg>
