<?xml version="1.0" standalone="no"?>
<!DOCTYPE svg PUBLIC "-//W3C//DTD SVG 20010904//EN"
    "http://www.w3.org/TR/2001/REC-SVG-20010904/DTD/svg10.dtd">
<svg version="1.0" xmlns="http://www.w3.org/2000/svg"
    width="1280.000000pt" height="1280.000000pt" viewBox="0 0 1280.000000 1280.000000"
    preserveAspectRatio="xMidYMid meet">
    <metadata>
        Created by potrace 1.15, written by Peter Selinger 2001-2017
    </metadata>
    <g transform="translate(0.000000,1280.000000) scale(0.100000,-0.100000)"
        fill="#000000" stroke="none">
        <path d="M2479 12009 c-87 -13 -312 -66 -397 -95 -284 -94 -596 -324 -786
-578 -177 -236 -246 -384 -311 -666 -19 -80 -39 -189 -44 -242 -15 -133 -15
-7896 -1 -8022 24 -209 99 -472 179 -630 105 -206 294 -437 466 -571 230 -179
389 -258 654 -325 258 -65 -91 -60 4296 -60 4372 0 4031 -5 4290 59 230 57
372 121 569 259 234 164 428 390 556 647 92 185 158 422 180 647 7 69 10 1412
7 4058 -3 3717 -4 3960 -20 4040 -73 350 -141 521 -304 752 -104 149 -224 273
-364 377 -217 163 -371 237 -609 297 -279 69 80 64 -4320 63 -2192 -1 -4010
-5 -4041 -10z m7354 -1429 c260 -30 537 -213 677 -448 57 -97 107 -225 120
-307 7 -49 10 -1075 8 -3425 l-3 -3355 -29 -75 c-102 -269 -258 -450 -481
-560 -123 -60 -177 -78 -274 -91 -50 -6 -1237 -9 -3401 -7 l-3325 3 -104 37
c-304 109 -510 316 -618 623 l-28 80 0 3390 0 3390 23 70 c57 169 135 295 254
411 91 89 164 140 272 189 101 45 166 65 244 75 103 12 6560 12 6665 0z"/>
        <path d="M5624 9140 c-153 -21 -257 -73 -370 -185 -135 -134 -183 -262 -184
-487 l0 -118 -612 0 c-676 0 -686 -1 -801 -62 -73 -39 -162 -127 -200 -196
-15 -28 -36 -85 -47 -128 -20 -75 -20 -116 -20 -1778 0 -1872 -3 -1777 62
-1905 40 -79 126 -167 205 -209 125 -66 -91 -62 2918 -62 2400 0 2738 2 2794
15 183 44 323 183 371 371 20 76 20 114 20 1778 0 1872 3 1777 -62 1905 -40
79 -126 167 -205 209 -115 61 -125 62 -800 62 l-613 0 0 116 c0 220 -51 355
-185 490 -61 62 -98 90 -155 117 -155 75 -89 71 -1125 73 -511 1 -958 -2 -991
-6z m1898 -380 c57 -16 119 -69 150 -129 26 -49 28 -62 28 -167 l0 -114 -1127
2 -1128 3 -3 73 c-6 141 26 229 103 287 72 56 37 54 1025 55 601 0 928 -4 952
-10z m-840 -2014 c4 -244 -14 -226 225 -226 l183 0 0 -110 0 -110 -183 0
c-239 0 -221 18 -225 -226 l-3 -184 -104 0 -104 0 -3 184 c-4 244 14 226 -225
226 l-183 0 0 110 0 110 183 0 c239 0 221 -18 225 226 l3 184 104 0 104 0 3
-184z"/>
    </g>
</svg>
