<?xml version="1.0" standalone="no"?>
<!DOCTYPE svg PUBLIC "-//W3C//DTD SVG 20010904//EN"
    "http://www.w3.org/TR/2001/REC-SVG-20010904/DTD/svg10.dtd">
<svg version="1.0" xmlns="http://www.w3.org/2000/svg"
    width="909.000000pt" height="1280.000000pt" viewBox="0 0 909.000000 1280.000000"
    preserveAspectRatio="xMidYMid meet">
    <metadata>
        Created by potrace 1.15, written by Peter Selinger 2001-2017
    </metadata>
    <g transform="translate(0.000000,1280.000000) scale(0.100000,-0.100000)"
        fill="#000000" stroke="none">
        <path d="M5105 12785 c-551 -102 -923 -588 -874 -1142 22 -242 130 -472 303
-645 513 -513 1374 -372 1691 277 65 131 91 222 107 367 13 127 1 261 -38 397
-103 363 -419 657 -789 736 -110 24 -300 28 -400 10z"/>
        <path d="M5187 10059 c-405 -27 -715 -147 -788 -304 -18 -38 -19 -88 -19
-1092 l0 -1053 -1073 0 -1074 0 -64 -41 c-100 -65 -164 -124 -212 -197 -65
-98 -76 -137 -120 -442 -2 -13 147 -15 1276 -18 l1277 -2 0 -345 0 -345 -285
0 -285 0 0 -171 0 -172 -432 7 c-1174 17 -1493 18 -1558 6 -125 -23 -211 -74
-268 -160 -77 -114 -146 -291 -230 -590 -80 -280 -466 -1690 -617 -2250 -42
-157 -121 -449 -175 -650 -91 -336 -437 -1628 -510 -1903 -19 -73 -29 -129
-25 -146 28 -130 310 -228 509 -176 84 22 125 44 172 91 48 47 19 -37 334 974
105 338 279 896 387 1240 431 1383 539 1728 629 2020 52 168 106 340 120 382
l26 78 349 0 349 0 0 -230 c0 -126 4 -230 9 -230 5 0 -3 -30 -16 -67 -40 -111
-89 -289 -117 -426 -48 -235 -60 -363 -60 -632 -1 -255 7 -362 45 -575 228
-1284 1228 -2310 2505 -2569 226 -46 399 -63 644 -63 399 0 758 64 1120 199
1027 383 1795 1281 2014 2353 49 244 60 356 60 645 0 343 -26 548 -108 846
-77 279 -224 615 -372 851 -399 633 -1000 1106 -1707 1343 l-102 34 -3 51 -3
50 -200 0 -199 0 0 1664 c0 1828 5 1696 -60 1770 -155 176 -638 280 -1143 245z
m1808 -4599 c261 -128 452 -264 659 -468 358 -354 600 -798 696 -1281 164
-825 -73 -1645 -650 -2244 -394 -410 -879 -661 -1445 -749 -199 -31 -530 -31
-730 0 -565 88 -1051 339 -1446 749 -626 650 -852 1578 -598 2452 33 114 48
153 116 314 l46 107 173 0 174 0 0 230 0 229 828 4 827 3 106 26 c203 50 352
130 465 249 104 109 160 232 171 371 l6 78 198 0 c135 0 199 3 199 11 0 17 33
3 205 -81z"/>
    </g>
</svg>
